<svg width="1953" height="1633" xmlns="http://www.w3.org/2000/svg" xmlns:xlink="http://www.w3.org/1999/xlink" xml:space="preserve" overflow="hidden"><defs><clipPath id="clip0"><rect x="1630" y="153" width="1953" height="1633"/></clipPath><clipPath id="clip1"><rect x="1721" y="425" width="1836" height="1260"/></clipPath><clipPath id="clip2"><rect x="1518" y="177" width="2175" height="80"/></clipPath></defs><g clip-path="url(#clip0)" transform="translate(-1630 -153)"><rect x="1630.5" y="153.5" width="1951" height="1631" fill="#FFFFFF"/><rect x="1630.5" y="153.5" width="1951" height="1631" stroke="#4472C4" stroke-width="3.4375" stroke-miterlimit="2" stroke-opacity="0.788235" fill="none"/><g clip-path="url(#clip1)"><path d="M1721 425 3556 425 3556 1684 1721 1684Z" stroke="#4472C4" stroke-width="6.875" stroke-linejoin="round" stroke-miterlimit="10" fill="none"/><path d="M1726.5 1554.5 3551.5 1554.5" stroke="#D9D9D9" stroke-width="3.4375" stroke-miterlimit="2" fill="none"/><path d="M1726.5 1429.5 3551.5 1429.5" stroke="#D9D9D9" stroke-width="3.4375" stroke-miterlimit="2" fill="none"/><path d="M1726.5 1304.5 3551.5 1304.5" stroke="#D9D9D9" stroke-width="3.4375" stroke-miterlimit="2" fill="none"/><path d="M1726.5 1179.5 3551.5 1179.5" stroke="#D9D9D9" stroke-width="3.4375" stroke-miterlimit="2" fill="none"/><path d="M1726.5 1055.5 3551.5 1055.5" stroke="#D9D9D9" stroke-width="3.4375" stroke-miterlimit="2" fill="none"/><path d="M1726.5 930.5 3551.5 930.5" stroke="#D9D9D9" stroke-width="3.4375" stroke-miterlimit="2" fill="none"/><path d="M1726.5 805.5 3551.5 805.5" stroke="#D9D9D9" stroke-width="3.4375" stroke-miterlimit="2" fill="none"/><path d="M1726.5 680.5 3551.5 680.5" stroke="#D9D9D9" stroke-width="3.4375" stroke-miterlimit="2" fill="none"/><path d="M1726.5 555.5 3551.5 555.5" stroke="#D9D9D9" stroke-width="3.4375" stroke-miterlimit="2" fill="none"/><path d="M1726.5 430.5 3551.5 430.5" stroke="#D9D9D9" stroke-width="3.4375" stroke-miterlimit="2" fill="none"/><path d="M2240.5 1055.5 2290.5 1055.5" stroke="#365B9C" stroke-width="3.4375" stroke-miterlimit="2" fill="none"/><path d="M2265.5 930.5 2265.5 1055.5" stroke="#365B9C" stroke-width="3.4375" stroke-miterlimit="2" fill="none"/><path d="M2240.5 555.5 2290.5 555.5" stroke="#365B9C" stroke-width="3.4375" stroke-miterlimit="2" fill="none"/><path d="M2265.5 555.5 2265.5 680.5" stroke="#365B9C" stroke-width="3.4375" stroke-miterlimit="2" fill="none"/><rect x="2182.5" y="680.5" width="167" height="250" fill="#4472C4"/><rect x="2182.5" y="680.5" width="167" height="250" stroke="#365B9C" stroke-width="3.4375" stroke-miterlimit="2" fill="none"/><path d="M2182.5 680.5 2349.5 680.5" stroke="#365B9C" stroke-width="3.4375" stroke-miterlimit="2" fill="none"/><path d="M2182.5 930.5 2349.5 930.5" stroke="#365B9C" stroke-width="3.4375" stroke-miterlimit="2" fill="none"/><path d="M2182.5 805.5 2349.5 805.5" stroke="#365B9C" stroke-width="3.4375" stroke-miterlimit="2" fill="none"/><ellipse cx="2265.5" cy="1055" rx="7" ry="6.5" fill="#4472C4"/><ellipse cx="2265.5" cy="1055" rx="7" ry="6.5" stroke="#365B9C" stroke-width="3.4375" stroke-miterlimit="2" fill="none"/><circle cx="2265.5" cy="930.5" r="7" fill="#4472C4"/><circle cx="2265.5" cy="930.5" r="7" stroke="#365B9C" stroke-width="3.4375" stroke-miterlimit="2" fill="none"/><circle cx="2265.5" cy="805.5" r="7" fill="#4472C4"/><circle cx="2265.5" cy="805.5" r="7" stroke="#365B9C" stroke-width="3.4375" stroke-miterlimit="2" fill="none"/><circle cx="2265.5" cy="680.5" r="7" fill="#4472C4"/><circle cx="2265.5" cy="680.5" r="7" stroke="#365B9C" stroke-width="3.4375" stroke-miterlimit="2" fill="none"/><circle cx="2265.5" cy="555.5" r="7" fill="#4472C4"/><circle cx="2265.5" cy="555.5" r="7" stroke="#365B9C" stroke-width="3.4375" stroke-miterlimit="2" fill="none"/><path d="M2252.5 812.5 2279.5 785.5" stroke="#365B9C" stroke-width="3.4375" stroke-miterlimit="2" fill="none"/><path d="M2252.5 785.5 2279.5 812.5" stroke="#365B9C" stroke-width="3.4375" stroke-miterlimit="2" fill="none"/><path d="M2424.5 930.5 2474.5 930.5" stroke="#BD6427" stroke-width="3.4375" stroke-miterlimit="2" fill="none"/><path d="M2449.5 805.5 2449.5 930.5" stroke="#BD6427" stroke-width="3.4375" stroke-miterlimit="2" fill="none"/><path d="M2424.5 555.5 2474.5 555.5" stroke="#BD6427" stroke-width="3.4375" stroke-miterlimit="2" fill="none"/><path d="M2449.5 555.5 2449.5 680.5" stroke="#BD6427" stroke-width="3.4375" stroke-miterlimit="2" fill="none"/><rect x="2365.5" y="680.5" width="167" height="125" fill="#ED7D31"/><rect x="2365.5" y="680.5" width="167" height="125" stroke="#BD6427" stroke-width="3.4375" stroke-miterlimit="2" fill="none"/><path d="M2365.5 680.5 2532.5 680.5" stroke="#BD6427" stroke-width="3.4375" stroke-miterlimit="2" fill="none"/><path d="M2365.5 805.5 2532.5 805.5" stroke="#BD6427" stroke-width="3.4375" stroke-miterlimit="2" fill="none"/><path d="M2365.5 805.5 2532.5 805.5" stroke="#BD6427" stroke-width="3.4375" stroke-miterlimit="2" fill="none"/><circle cx="2449.5" cy="930.5" r="7" fill="#ED7D31"/><circle cx="2449.5" cy="930.5" r="7" stroke="#BD6427" stroke-width="3.4375" stroke-miterlimit="2" fill="none"/><circle cx="2449.5" cy="805.5" r="7" fill="#ED7D31"/><circle cx="2449.5" cy="805.5" r="7" stroke="#BD6427" stroke-width="3.4375" stroke-miterlimit="2" fill="none"/><circle cx="2449.5" cy="680.5" r="7" fill="#ED7D31"/><circle cx="2449.5" cy="680.5" r="7" stroke="#BD6427" stroke-width="3.4375" stroke-miterlimit="2" fill="none"/><circle cx="2449.5" cy="555.5" r="7" fill="#ED7D31"/><circle cx="2449.5" cy="555.5" r="7" stroke="#BD6427" stroke-width="3.4375" stroke-miterlimit="2" fill="none"/><ellipse cx="2449.5" cy="1055" rx="7" ry="6.5" fill="#ED7D31"/><ellipse cx="2449.5" cy="1055" rx="7" ry="6.5" stroke="#BD6427" stroke-width="3.4375" stroke-miterlimit="2" fill="none"/><path d="M2435.5 775.5 2462.5 747.5" stroke="#BD6427" stroke-width="3.4375" stroke-miterlimit="2" fill="none"/><path d="M2435.5 747.5 2462.5 775.5" stroke="#BD6427" stroke-width="3.4375" stroke-miterlimit="2" fill="none"/><path d="M2608.5 1304.5 2658.5 1304.5" stroke="#848484" stroke-width="3.4375" stroke-miterlimit="2" fill="none"/><path d="M2633.5 1148.5 2633.5 1304.5" stroke="#848484" stroke-width="3.4375" stroke-miterlimit="2" fill="none"/><path d="M2608.5 555.5 2658.5 555.5" stroke="#848484" stroke-width="3.4375" stroke-miterlimit="2" fill="none"/><path d="M2633.5 555.5 2633.5 680.5" stroke="#848484" stroke-width="3.4375" stroke-miterlimit="2" fill="none"/><rect x="2551.5" y="680.5" width="165" height="468" fill="#A5A5A5"/><rect x="2551.5" y="680.5" width="165" height="468" stroke="#848484" stroke-width="3.4375" stroke-miterlimit="2" fill="none"/><path d="M2551.5 680.5 2716.5 680.5" stroke="#848484" stroke-width="3.4375" stroke-miterlimit="2" fill="none"/><path d="M2551.5 1148.5 2716.5 1148.5" stroke="#848484" stroke-width="3.4375" stroke-miterlimit="2" fill="none"/><path d="M2551.5 867.5 2716.5 867.5" stroke="#848484" stroke-width="3.4375" stroke-miterlimit="2" fill="none"/><ellipse cx="2633.5" cy="1180" rx="7" ry="6.5" fill="#A5A5A5"/><ellipse cx="2633.5" cy="1180" rx="7" ry="6.5" stroke="#848484" stroke-width="3.4375" stroke-miterlimit="2" fill="none"/><ellipse cx="2633.5" cy="1055" rx="7" ry="6.5" fill="#A5A5A5"/><ellipse cx="2633.5" cy="1055" rx="7" ry="6.5" stroke="#848484" stroke-width="3.4375" stroke-miterlimit="2" fill="none"/><circle cx="2633.5" cy="930.5" r="7" fill="#A5A5A5"/><circle cx="2633.5" cy="930.5" r="7" stroke="#848484" stroke-width="3.4375" stroke-miterlimit="2" fill="none"/><circle cx="2633.5" cy="805.5" r="7" fill="#A5A5A5"/><circle cx="2633.5" cy="805.5" r="7" stroke="#848484" stroke-width="3.4375" stroke-miterlimit="2" fill="none"/><circle cx="2633.5" cy="680.5" r="7" fill="#A5A5A5"/><circle cx="2633.5" cy="680.5" r="7" stroke="#848484" stroke-width="3.4375" stroke-miterlimit="2" fill="none"/><circle cx="2633.5" cy="555.5" r="7" fill="#A5A5A5"/><circle cx="2633.5" cy="555.5" r="7" stroke="#848484" stroke-width="3.4375" stroke-miterlimit="2" fill="none"/><path d="M2619.5 912.5 2647.5 885.5" stroke="#848484" stroke-width="3.4375" stroke-miterlimit="2" fill="none"/><path d="M2619.5 885.5 2647.5 912.5" stroke="#848484" stroke-width="3.4375" stroke-miterlimit="2" fill="none"/><path d="M2792.5 1304.5 2843.5 1304.5" stroke="#CC9900" stroke-width="3.4375" stroke-miterlimit="2" fill="none"/><path d="M2818.5 1148.5 2818.5 1304.5" stroke="#CC9900" stroke-width="3.4375" stroke-miterlimit="2" fill="none"/><path d="M2792.5 680.5 2843.5 680.5" stroke="#CC9900" stroke-width="3.4375" stroke-miterlimit="2" fill="none"/><path d="M2818.5 680.5 2818.5 930.5" stroke="#CC9900" stroke-width="3.4375" stroke-miterlimit="2" fill="none"/><rect x="2734.5" y="930.5" width="167" height="218" fill="#FFC000"/><rect x="2734.5" y="930.5" width="167" height="218" stroke="#CC9900" stroke-width="3.4375" stroke-miterlimit="2" fill="none"/><path d="M2734.5 930.5 2901.5 930.5" stroke="#CC9900" stroke-width="3.4375" stroke-miterlimit="2" fill="none"/><path d="M2734.5 1148.5 2901.5 1148.5" stroke="#CC9900" stroke-width="3.4375" stroke-miterlimit="2" fill="none"/><path d="M2734.5 992.5 2901.5 992.5" stroke="#CC9900" stroke-width="3.4375" stroke-miterlimit="2" fill="none"/><circle cx="2818" cy="1180" r="6.5" fill="#FFC000"/><circle cx="2818" cy="1180" r="6.5" stroke="#CC9900" stroke-width="3.4375" stroke-miterlimit="2" fill="none"/><circle cx="2818" cy="1055" r="6.5" fill="#FFC000"/><circle cx="2818" cy="1055" r="6.5" stroke="#CC9900" stroke-width="3.4375" stroke-miterlimit="2" fill="none"/><ellipse cx="2818" cy="930.5" rx="6.5" ry="7" fill="#FFC000"/><ellipse cx="2818" cy="930.5" rx="6.5" ry="7" stroke="#CC9900" stroke-width="3.4375" stroke-miterlimit="2" fill="none"/><ellipse cx="2818" cy="805.5" rx="6.5" ry="7" fill="#FFC000"/><ellipse cx="2818" cy="805.5" rx="6.5" ry="7" stroke="#CC9900" stroke-width="3.4375" stroke-miterlimit="2" fill="none"/><path d="M2804.5 1012.5 2831.5 985.5" stroke="#CC9900" stroke-width="3.4375" stroke-miterlimit="2" fill="none"/><path d="M2804.5 985.5 2831.5 1012.5" stroke="#CC9900" stroke-width="3.4375" stroke-miterlimit="2" fill="none"/><path d="M2976.5 1429.5 3026.5 1429.5" stroke="#487CAA" stroke-width="3.4375" stroke-miterlimit="2" fill="none"/><path d="M3001.5 1273.5 3001.5 1429.5" stroke="#487CAA" stroke-width="3.4375" stroke-miterlimit="2" fill="none"/><path d="M2976.5 680.5 3026.5 680.5" stroke="#487CAA" stroke-width="3.4375" stroke-miterlimit="2" fill="none"/><path d="M3001.5 680.5 3001.5 930.5" stroke="#487CAA" stroke-width="3.4375" stroke-miterlimit="2" fill="none"/><rect x="2917.5" y="930.5" width="168" height="343" fill="#5B9BD5"/><rect x="2917.5" y="930.5" width="168" height="343" stroke="#487CAA" stroke-width="3.4375" stroke-miterlimit="2" fill="none"/><path d="M2917.5 930.5 3085.5 930.5" stroke="#487CAA" stroke-width="3.4375" stroke-miterlimit="2" fill="none"/><path d="M2917.5 1273.5 3085.5 1273.5" stroke="#487CAA" stroke-width="3.4375" stroke-miterlimit="2" fill="none"/><path d="M2917.5 1117.5 3085.5 1117.5" stroke="#487CAA" stroke-width="3.4375" stroke-miterlimit="2" fill="none"/><circle cx="3001.5" cy="1304.5" r="7" fill="#5B9BD5"/><circle cx="3001.5" cy="1304.5" r="7" stroke="#487CAA" stroke-width="3.4375" stroke-miterlimit="2" fill="none"/><ellipse cx="3001.5" cy="1180" rx="7" ry="6.5" fill="#5B9BD5"/><ellipse cx="3001.5" cy="1180" rx="7" ry="6.5" stroke="#487CAA" stroke-width="3.4375" stroke-miterlimit="2" fill="none"/><ellipse cx="3001.5" cy="1055" rx="7" ry="6.5" fill="#5B9BD5"/><ellipse cx="3001.5" cy="1055" rx="7" ry="6.5" stroke="#487CAA" stroke-width="3.4375" stroke-miterlimit="2" fill="none"/><circle cx="3001.5" cy="930.5" r="7" fill="#5B9BD5"/><circle cx="3001.5" cy="930.5" r="7" stroke="#487CAA" stroke-width="3.4375" stroke-miterlimit="2" fill="none"/><circle cx="3001.5" cy="805.5" r="7" fill="#5B9BD5"/><circle cx="3001.5" cy="805.5" r="7" stroke="#487CAA" stroke-width="3.4375" stroke-miterlimit="2" fill="none"/><path d="M2987.5 1100.5 3015.5 1072.5" stroke="#487CAA" stroke-width="3.4375" stroke-miterlimit="2" fill="none"/><path d="M2987.5 1072.5 3015.5 1100.5" stroke="#487CAA" stroke-width="3.4375" stroke-miterlimit="2" fill="none"/></g><path d="M1726.5 1679.5 3551.5 1679.5" stroke="#D9D9D9" stroke-width="3.4375" stroke-miterlimit="2" fill="none"/><path d="M1726.5 1666.5 1726.5 1679.5" stroke="#D9D9D9" stroke-width="3.4375" stroke-miterlimit="2" fill="none"/><path d="M3551.5 1666.5 3551.5 1679.5" stroke="#D9D9D9" stroke-width="3.4375" stroke-miterlimit="2" fill="none"/><path d="M1726.5 1671.5 1726.5 1679.5" stroke="#D9D9D9" stroke-width="3.4375" stroke-miterlimit="2" fill="none"/><path d="M2639.5 1671.5 2639.5 1679.5" stroke="#D9D9D9" stroke-width="3.4375" stroke-miterlimit="2" fill="none"/><path d="M3551.5 1671.5 3551.5 1679.5" stroke="#D9D9D9" stroke-width="3.4375" stroke-miterlimit="2" fill="none"/><path d="M1726.5 1679.5 1726.5 430.5" stroke="#D9D9D9" stroke-width="3.4375" stroke-miterlimit="2" fill="none"/><text fill="#595959" font-family="Calibri,Calibri_MSFontService,sans-serif" font-weight="400" font-size="12" transform="matrix(3.4375 0 0 3.4375 1675.87 1653.93)" x="0.133523" y="3.391">0<tspan font-size="12" x="0.133523" y="-32.9431">1</tspan><tspan font-size="12" x="0.133523" y="-69.2772">2</tspan><tspan font-size="12" x="0.133523" y="-105.611">3</tspan><tspan font-size="12" x="0.133523" y="-141.945">4</tspan><tspan font-size="12" x="0.133523" y="-178.195">5</tspan><tspan font-size="12" x="0.133523" y="-214.529">6</tspan><tspan font-size="12" x="0.133523" y="-250.863">7</tspan><tspan font-size="12" x="0.133523" y="-287.197">8</tspan><tspan font-size="12" x="0.133523" y="-323.531">9</tspan><tspan font-size="12" x="-6.02127" y="-359.865">10</tspan></text><g clip-path="url(#clip2)"><text fill="#595959" font-family="Calibri,Calibri_MSFontService,sans-serif" font-weight="400" font-size="64" transform="translate(2450.39 239)">User Survey</text></g><rect x="2100" y="274" width="1012" height="114" fill="#000000" fill-opacity="0"/><rect x="2140.5" y="314.5" width="33" height="33" fill="#4472C4"/><rect x="2140.5" y="314.5" width="33" height="33" stroke="#365B9C" stroke-width="3.4375" stroke-miterlimit="2" fill="none"/><text fill="#595959" font-family="Calibri,Calibri_MSFontService,sans-serif" font-weight="400" font-size="12" transform="matrix(3.4375 0 0 3.4375 2190 305.684)" x="0.164205" y="3.41189">Sand</text><rect x="2305.5" y="314.5" width="33" height="33" fill="#ED7D31"/><rect x="2305.5" y="314.5" width="33" height="33" stroke="#BD6427" stroke-width="3.4375" stroke-miterlimit="2" fill="none"/><text fill="#595959" font-family="Calibri,Calibri_MSFontService,sans-serif" font-weight="400" font-size="12" transform="matrix(3.4375 0 0 3.4375 2355.38 305.684)" x="0.0519886" y="3.41189">Grass</text><rect x="2480.5" y="314.5" width="33" height="33" fill="#A5A5A5"/><rect x="2480.5" y="314.5" width="33" height="33" stroke="#848484" stroke-width="3.4375" stroke-miterlimit="2" fill="none"/><text fill="#595959" font-family="Calibri,Calibri_MSFontService,sans-serif" font-weight="400" font-size="12" transform="matrix(3.4375 0 0 3.4375 2530.38 305.684)" x="0.133239" y="3.41189">Gravel<tspan font-size="12" x="9.17585" y="3.41189"> </tspan></text><rect x="2671.5" y="314.5" width="33" height="33" fill="#FFC000"/><rect x="2671.5" y="314.5" width="33" height="33" stroke="#CC9900" stroke-width="3.4375" stroke-miterlimit="2" fill="none"/><text fill="#595959" font-family="Calibri,Calibri_MSFontService,sans-serif" font-weight="400" font-size="12" transform="matrix(3.4375 0 0 3.4375 2720.8 305.684)" x="0.179261" y="3.41189">Asphalt</text><rect x="2881.5" y="314.5" width="33" height="33" fill="#5B9BD5"/><rect x="2881.5" y="314.5" width="33" height="33" stroke="#487CAA" stroke-width="3.4375" stroke-miterlimit="2" fill="none"/><text fill="#595959" font-family="Calibri,Calibri_MSFontService,sans-serif" font-weight="400" font-size="12" transform="matrix(3.4375 0 0 3.4375 2930.95 305.684)" x="0.138636" y="3.41189">Linoleum</text><path d="M1631 154 3582.35 154 3582.35 1785.67 1631 1785.67Z" fill="#000000" fill-rule="evenodd" fill-opacity="0"/></g></svg>