<svg width="1953" height="1633" xmlns="http://www.w3.org/2000/svg" xmlns:xlink="http://www.w3.org/1999/xlink" xml:space="preserve" overflow="hidden"><defs><clipPath id="clip0"><rect x="1151" y="609" width="1953" height="1633"/></clipPath><clipPath id="clip1"><rect x="1263" y="729" width="1815" height="1412"/></clipPath><clipPath id="clip2"><rect x="230" y="633" width="3793" height="80"/></clipPath></defs><g clip-path="url(#clip0)" transform="translate(-1151 -609)"><rect x="1151.5" y="609.5" width="1951" height="1631" fill="#FFFFFF"/><rect x="1151.5" y="609.5" width="1951" height="1631" stroke="#D9D9D9" stroke-width="3.4375" stroke-miterlimit="2" fill="none"/><g clip-path="url(#clip1)"><path d="M1263 729 3077 729 3077 2140 1263 2140Z" stroke="#4472C4" stroke-width="6.875" stroke-linejoin="round" stroke-miterlimit="10" fill="none"/><path d="M1268.5 1849.5 3072.5 1849.5" stroke="#D9D9D9" stroke-width="3.4375" stroke-miterlimit="2" fill="none"/><path d="M1268.5 1563.5 3072.5 1563.5" stroke="#D9D9D9" stroke-width="3.4375" stroke-miterlimit="2" fill="none"/><path d="M1268.5 1277.5 3072.5 1277.5" stroke="#D9D9D9" stroke-width="3.4375" stroke-miterlimit="2" fill="none"/><path d="M1268.5 991.5 3072.5 991.5" stroke="#D9D9D9" stroke-width="3.4375" stroke-miterlimit="2" fill="none"/><path d="M1742.5 1935.5 1762.5 1935.5" stroke="#365B9C" stroke-width="3.4375" stroke-miterlimit="2" fill="none"/><path d="M1752.5 1906.5 1752.5 1935.5" stroke="#365B9C" stroke-width="3.4375" stroke-miterlimit="2" fill="none"/><path d="M1742.5 1820.5 1762.5 1820.5" stroke="#365B9C" stroke-width="3.4375" stroke-miterlimit="2" fill="none"/><path d="M1752.5 1820.5 1752.5 1849.5" stroke="#365B9C" stroke-width="3.4375" stroke-miterlimit="2" fill="none"/><rect x="1719.5" y="1849.5" width="67" height="57" fill="#4472C4"/><rect x="1719.5" y="1849.5" width="67" height="57" stroke="#365B9C" stroke-width="3.4375" stroke-miterlimit="2" fill="none"/><path d="M1719.5 1849.5 1786.5 1849.5" stroke="#365B9C" stroke-width="3.4375" stroke-miterlimit="2" fill="none"/><path d="M1719.5 1906.5 1786.5 1906.5" stroke="#365B9C" stroke-width="3.4375" stroke-miterlimit="2" fill="none"/><path d="M1719.5 1878.5 1786.5 1878.5" stroke="#365B9C" stroke-width="3.4375" stroke-miterlimit="2" fill="none"/><path d="M1739.5 1891.5 1766.5 1864.5" stroke="#365B9C" stroke-width="3.4375" stroke-miterlimit="2" fill="none"/><path d="M1739.5 1864.5 1766.5 1891.5" stroke="#365B9C" stroke-width="3.4375" stroke-miterlimit="2" fill="none"/><path d="M1817.5 1992.5 1837.5 1992.5" stroke="#BD6427" stroke-width="3.4375" stroke-miterlimit="2" fill="none"/><path d="M1827.5 1963.5 1827.5 1992.5" stroke="#BD6427" stroke-width="3.4375" stroke-miterlimit="2" fill="none"/><path d="M1817.5 1820.5 1837.5 1820.5" stroke="#BD6427" stroke-width="3.4375" stroke-miterlimit="2" fill="none"/><path d="M1827.5 1820.5 1827.5 1849.5" stroke="#BD6427" stroke-width="3.4375" stroke-miterlimit="2" fill="none"/><rect x="1793.5" y="1849.5" width="68" height="114" fill="#ED7D31"/><rect x="1793.5" y="1849.5" width="68" height="114" stroke="#BD6427" stroke-width="3.4375" stroke-miterlimit="2" fill="none"/><path d="M1793.5 1849.5 1861.5 1849.5" stroke="#BD6427" stroke-width="3.4375" stroke-miterlimit="2" fill="none"/><path d="M1793.5 1963.5 1861.5 1963.5" stroke="#BD6427" stroke-width="3.4375" stroke-miterlimit="2" fill="none"/><path d="M1793.5 1935.5 1861.5 1935.5" stroke="#BD6427" stroke-width="3.4375" stroke-miterlimit="2" fill="none"/><path d="M1813.5 1926.5 1841.5 1898.5" stroke="#BD6427" stroke-width="3.4375" stroke-miterlimit="2" fill="none"/><path d="M1813.5 1898.5 1841.5 1926.5" stroke="#BD6427" stroke-width="3.4375" stroke-miterlimit="2" fill="none"/><path d="M1892.5 1992.5 1913.5 1992.5" stroke="#848484" stroke-width="3.4375" stroke-miterlimit="2" fill="none"/><path d="" stroke="#848484" stroke-width="3.4375" stroke-miterlimit="2" fill="none"/><path d="M1892.5 1878.5 1913.5 1878.5" stroke="#848484" stroke-width="3.4375" stroke-miterlimit="2" fill="none"/><path d="M1903.5 1878.5 1903.5 1906.5" stroke="#848484" stroke-width="3.4375" stroke-miterlimit="2" fill="none"/><rect x="1868.5" y="1906.5" width="69" height="86" fill="#A5A5A5"/><rect x="1868.5" y="1906.5" width="69" height="86" stroke="#848484" stroke-width="3.4375" stroke-miterlimit="2" fill="none"/><path d="M1868.5 1906.5 1937.5 1906.5" stroke="#848484" stroke-width="3.4375" stroke-miterlimit="2" fill="none"/><path d="M1868.5 1992.5 1937.5 1992.5" stroke="#848484" stroke-width="3.4375" stroke-miterlimit="2" fill="none"/><path d="M1868.5 1935.5 1937.5 1935.5" stroke="#848484" stroke-width="3.4375" stroke-miterlimit="2" fill="none"/><path d="M1889.5 1960.5 1916.5 1932.5" stroke="#848484" stroke-width="3.4375" stroke-miterlimit="2" fill="none"/><path d="M1889.5 1932.5 1916.5 1960.5" stroke="#848484" stroke-width="3.4375" stroke-miterlimit="2" fill="none"/><path d="M1968.5 1820.5 1988.5 1820.5" stroke="#CC9900" stroke-width="3.4375" stroke-miterlimit="2" fill="none"/><path d="M1978.5 1792.5 1978.5 1820.5" stroke="#CC9900" stroke-width="3.4375" stroke-miterlimit="2" fill="none"/><path d="M1968.5 1706.5 1988.5 1706.5" stroke="#CC9900" stroke-width="3.4375" stroke-miterlimit="2" fill="none"/><path d="M1978.5 1706.5 1978.5 1735.5" stroke="#CC9900" stroke-width="3.4375" stroke-miterlimit="2" fill="none"/><rect x="1944.5" y="1735.5" width="69" height="57" fill="#FFC000"/><rect x="1944.5" y="1735.5" width="69" height="57" stroke="#CC9900" stroke-width="3.4375" stroke-miterlimit="2" fill="none"/><path d="M1944.5 1735.5 2013.5 1735.5" stroke="#CC9900" stroke-width="3.4375" stroke-miterlimit="2" fill="none"/><path d="M1944.5 1792.5 2013.5 1792.5" stroke="#CC9900" stroke-width="3.4375" stroke-miterlimit="2" fill="none"/><path d="M1944.5 1763.5 2013.5 1763.5" stroke="#CC9900" stroke-width="3.4375" stroke-miterlimit="2" fill="none"/><path d="M1964.5 1777.5 1992.5 1749.5" stroke="#CC9900" stroke-width="3.4375" stroke-miterlimit="2" fill="none"/><path d="M1964.5 1749.5 1992.5 1777.5" stroke="#CC9900" stroke-width="3.4375" stroke-miterlimit="2" fill="none"/><path d="M2043.5 1649.5 2064.5 1649.5" stroke="#487CAA" stroke-width="3.4375" stroke-miterlimit="2" fill="none"/><path d="M2054.5 1620.5 2054.5 1649.5" stroke="#487CAA" stroke-width="3.4375" stroke-miterlimit="2" fill="none"/><path d="M2043.5 1477.5 2064.5 1477.5" stroke="#487CAA" stroke-width="3.4375" stroke-miterlimit="2" fill="none"/><path d="M2054.5 1477.5 2054.5 1506.5" stroke="#487CAA" stroke-width="3.4375" stroke-miterlimit="2" fill="none"/><rect x="2019.5" y="1506.5" width="69" height="114" fill="#5B9BD5"/><rect x="2019.5" y="1506.5" width="69" height="114" stroke="#487CAA" stroke-width="3.4375" stroke-miterlimit="2" fill="none"/><path d="M2019.5 1506.5 2088.5 1506.5" stroke="#487CAA" stroke-width="3.4375" stroke-miterlimit="2" fill="none"/><path d="M2019.5 1620.5 2088.5 1620.5" stroke="#487CAA" stroke-width="3.4375" stroke-miterlimit="2" fill="none"/><path d="M2019.5 1592.5 2088.5 1592.5" stroke="#487CAA" stroke-width="3.4375" stroke-miterlimit="2" fill="none"/><path d="M2040.5 1583.5 2068.5 1555.5" stroke="#487CAA" stroke-width="3.4375" stroke-miterlimit="2" fill="none"/><path d="M2040.5 1555.5 2068.5 1583.5" stroke="#487CAA" stroke-width="3.4375" stroke-miterlimit="2" fill="none"/><path d="M2119.5 1706.5 2140.5 1706.5" stroke="#598A38" stroke-width="3.4375" stroke-miterlimit="2" fill="none"/><path d="" stroke="#598A38" stroke-width="3.4375" stroke-miterlimit="2" fill="none"/><path d="M2119.5 1534.5 2140.5 1534.5" stroke="#598A38" stroke-width="3.4375" stroke-miterlimit="2" fill="none"/><path d="M2129.5 1534.5 2129.5 1563.5" stroke="#598A38" stroke-width="3.4375" stroke-miterlimit="2" fill="none"/><rect x="2095.5" y="1563.5" width="69" height="143" fill="#70AD47"/><rect x="2095.5" y="1563.5" width="69" height="143" stroke="#598A38" stroke-width="3.4375" stroke-miterlimit="2" fill="none"/><path d="M2095.5 1563.5 2164.5 1563.5" stroke="#598A38" stroke-width="3.4375" stroke-miterlimit="2" fill="none"/><path d="M2095.5 1706.5 2164.5 1706.5" stroke="#598A38" stroke-width="3.4375" stroke-miterlimit="2" fill="none"/><path d="M2095.5 1649.5 2164.5 1649.5" stroke="#598A38" stroke-width="3.4375" stroke-miterlimit="2" fill="none"/><path d="M2116.5 1651.5 2143.5 1624.5" stroke="#598A38" stroke-width="3.4375" stroke-miterlimit="2" fill="none"/><path d="M2116.5 1624.5 2143.5 1651.5" stroke="#598A38" stroke-width="3.4375" stroke-miterlimit="2" fill="none"/><path d="M2195.5 1592.5 2215.5 1592.5" stroke="#1E3660" stroke-width="3.4375" stroke-miterlimit="2" fill="none"/><path d="" stroke="#1E3660" stroke-width="3.4375" stroke-miterlimit="2" fill="none"/><path d="M2195.5 1134.5 2215.5 1134.5" stroke="#1E3660" stroke-width="3.4375" stroke-miterlimit="2" fill="none"/><path d="M2205.5 1134.5 2205.5 1220.5" stroke="#1E3660" stroke-width="3.4375" stroke-miterlimit="2" fill="none"/><rect x="2171.5" y="1220.5" width="68" height="372" fill="#264478"/><rect x="2171.5" y="1220.5" width="68" height="372" stroke="#1E3660" stroke-width="3.4375" stroke-miterlimit="2" fill="none"/><path d="M2171.5 1220.5 2239.5 1220.5" stroke="#1E3660" stroke-width="3.4375" stroke-miterlimit="2" fill="none"/><path d="M2171.5 1592.5 2239.5 1592.5" stroke="#1E3660" stroke-width="3.4375" stroke-miterlimit="2" fill="none"/><path d="M2171.5 1477.5 2239.5 1477.5" stroke="#1E3660" stroke-width="3.4375" stroke-miterlimit="2" fill="none"/><path d="M2191.5 1434.5 2219.5 1406.5" stroke="#1E3660" stroke-width="3.4375" stroke-miterlimit="2" fill="none"/><path d="M2191.5 1406.5 2219.5 1434.5" stroke="#1E3660" stroke-width="3.4375" stroke-miterlimit="2" fill="none"/><path d="M2270.5 1363.5 2291.5 1363.5" stroke="#7E390B" stroke-width="3.4375" stroke-miterlimit="2" fill="none"/><path d="M2281.5 1334.5 2281.5 1363.5" stroke="#7E390B" stroke-width="3.4375" stroke-miterlimit="2" fill="none"/><path d="M2270.5 1249.5 2291.5 1249.5" stroke="#7E390B" stroke-width="3.4375" stroke-miterlimit="2" fill="none"/><path d="M2281.5 1249.5 2281.5 1277.5" stroke="#7E390B" stroke-width="3.4375" stroke-miterlimit="2" fill="none"/><rect x="2246.5" y="1277.5" width="69" height="57" fill="#9E480E"/><rect x="2246.5" y="1277.5" width="69" height="57" stroke="#7E390B" stroke-width="3.4375" stroke-miterlimit="2" fill="none"/><path d="M2246.5 1277.5 2315.5 1277.5" stroke="#7E390B" stroke-width="3.4375" stroke-miterlimit="2" fill="none"/><path d="M2246.5 1334.5 2315.5 1334.5" stroke="#7E390B" stroke-width="3.4375" stroke-miterlimit="2" fill="none"/><path d="M2246.5 1306.5 2315.5 1306.5" stroke="#7E390B" stroke-width="3.4375" stroke-miterlimit="2" fill="none"/><path d="M2267.5 1320.5 2294.5 1292.5" stroke="#7E390B" stroke-width="3.4375" stroke-miterlimit="2" fill="none"/><path d="M2267.5 1292.5 2294.5 1320.5" stroke="#7E390B" stroke-width="3.4375" stroke-miterlimit="2" fill="none"/><path d="M2346.5 1134.5 2367.5 1134.5" stroke="#4F4F4F" stroke-width="3.4375" stroke-miterlimit="2" fill="none"/><path d="M2356.5 1106.5 2356.5 1134.5" stroke="#4F4F4F" stroke-width="3.4375" stroke-miterlimit="2" fill="none"/><path d="M2346.5 906.5 2367.5 906.5" stroke="#4F4F4F" stroke-width="3.4375" stroke-miterlimit="2" fill="none"/><path d="M2356.5 906.5 2356.5 934.5" stroke="#4F4F4F" stroke-width="3.4375" stroke-miterlimit="2" fill="none"/><rect x="2322.5" y="934.5" width="69" height="172" fill="#636363"/><rect x="2322.5" y="934.5" width="69" height="172" stroke="#4F4F4F" stroke-width="3.4375" stroke-miterlimit="2" fill="none"/><path d="M2322.5 934.5 2391.5 934.5" stroke="#4F4F4F" stroke-width="3.4375" stroke-miterlimit="2" fill="none"/><path d="M2322.5 1106.5 2391.5 1106.5" stroke="#4F4F4F" stroke-width="3.4375" stroke-miterlimit="2" fill="none"/><path d="M2322.5 963.5 2391.5 963.5" stroke="#4F4F4F" stroke-width="3.4375" stroke-miterlimit="2" fill="none"/><path d="M2343.5 1022.5 2370.5 995.5" stroke="#4F4F4F" stroke-width="3.4375" stroke-miterlimit="2" fill="none"/><path d="M2343.5 995.5 2370.5 1022.5" stroke="#4F4F4F" stroke-width="3.4375" stroke-miterlimit="2" fill="none"/><path d="M2422.5 1534.5 2442.5 1534.5" stroke="#7A5C00" stroke-width="3.4375" stroke-miterlimit="2" fill="none"/><path d="M2432.5 1420.5 2432.5 1534.5" stroke="#7A5C00" stroke-width="3.4375" stroke-miterlimit="2" fill="none"/><path d="M2422.5 963.5 2442.5 963.5" stroke="#7A5C00" stroke-width="3.4375" stroke-miterlimit="2" fill="none"/><path d="M2432.5 963.5 2432.5 1077.5" stroke="#7A5C00" stroke-width="3.4375" stroke-miterlimit="2" fill="none"/><rect x="2398.5" y="1077.5" width="68" height="343" fill="#997300"/><rect x="2398.5" y="1077.5" width="68" height="343" stroke="#7A5C00" stroke-width="3.4375" stroke-miterlimit="2" fill="none"/><path d="M2398.5 1077.5 2466.5 1077.5" stroke="#7A5C00" stroke-width="3.4375" stroke-miterlimit="2" fill="none"/><path d="M2398.5 1420.5 2466.5 1420.5" stroke="#7A5C00" stroke-width="3.4375" stroke-miterlimit="2" fill="none"/><path d="M2398.5 1191.5 2466.5 1191.5" stroke="#7A5C00" stroke-width="3.4375" stroke-miterlimit="2" fill="none"/><path d="M2418.5 1251.5 2446.5 1223.5" stroke="#7A5C00" stroke-width="3.4375" stroke-miterlimit="2" fill="none"/><path d="M2418.5 1223.5 2446.5 1251.5" stroke="#7A5C00" stroke-width="3.4375" stroke-miterlimit="2" fill="none"/><path d="M2497.5 1420.5 2518.5 1420.5" stroke="#1D4B74" stroke-width="3.4375" stroke-miterlimit="2" fill="none"/><path d="M2508.5 1363.5 2508.5 1420.5" stroke="#1D4B74" stroke-width="3.4375" stroke-miterlimit="2" fill="none"/><path d="M2497.5 1249.5 2518.5 1249.5" stroke="#1D4B74" stroke-width="3.4375" stroke-miterlimit="2" fill="none"/><path d="" stroke="#1D4B74" stroke-width="3.4375" stroke-miterlimit="2" fill="none"/><rect x="2473.5" y="1249.5" width="69" height="114" fill="#255E91"/><rect x="2473.5" y="1249.5" width="69" height="114" stroke="#1D4B74" stroke-width="3.4375" stroke-miterlimit="2" fill="none"/><path d="M2473.5 1249.5 2542.5 1249.5" stroke="#1D4B74" stroke-width="3.4375" stroke-miterlimit="2" fill="none"/><path d="M2473.5 1363.5 2542.5 1363.5" stroke="#1D4B74" stroke-width="3.4375" stroke-miterlimit="2" fill="none"/><path d="M2473.5 1306.5 2542.5 1306.5" stroke="#1D4B74" stroke-width="3.4375" stroke-miterlimit="2" fill="none"/><path d="M2494.5 1320.5 2521.5 1292.5" stroke="#1D4B74" stroke-width="3.4375" stroke-miterlimit="2" fill="none"/><path d="M2494.5 1292.5 2521.5 1320.5" stroke="#1D4B74" stroke-width="3.4375" stroke-miterlimit="2" fill="none"/><path d="M2572.5 1306.5 2592.5 1306.5" stroke="#355322" stroke-width="3.4375" stroke-miterlimit="2" fill="none"/><path d="M2582.5 1220.5 2582.5 1306.5" stroke="#355322" stroke-width="3.4375" stroke-miterlimit="2" fill="none"/><path d="M2572.5 963.5 2592.5 963.5" stroke="#355322" stroke-width="3.4375" stroke-miterlimit="2" fill="none"/><path d="" stroke="#355322" stroke-width="3.4375" stroke-miterlimit="2" fill="none"/><rect x="2549.5" y="963.5" width="66" height="257" fill="#43682B"/><rect x="2549.5" y="963.5" width="66" height="257" stroke="#355322" stroke-width="3.4375" stroke-miterlimit="2" fill="none"/><path d="M2549.5 963.5 2615.5 963.5" stroke="#355322" stroke-width="3.4375" stroke-miterlimit="2" fill="none"/><path d="M2549.5 1220.5 2615.5 1220.5" stroke="#355322" stroke-width="3.4375" stroke-miterlimit="2" fill="none"/><path d="M2549.5 1077.5 2615.5 1077.5" stroke="#355322" stroke-width="3.4375" stroke-miterlimit="2" fill="none"/><path d="M2568.5 1102.5 2596.5 1075.5" stroke="#355322" stroke-width="3.4375" stroke-miterlimit="2" fill="none"/><path d="M2568.5 1075.5 2596.5 1102.5" stroke="#355322" stroke-width="3.4375" stroke-miterlimit="2" fill="none"/></g><path d="M1268.5 2135.5 3072.5 2135.5" stroke="#D9D9D9" stroke-width="3.4375" stroke-miterlimit="2" fill="none"/><text xmlns="http://www.w3.org/2000/svg" fill="#595959" font-family="Calibri,Calibri_MSFontService,sans-serif" font-weight="400" font-size="17" transform="matrix(3.4375 0 0 3.4375 1630.06 2205.06)" x="0" y="0"> No Vibration |Random|Full power|with gait</text><path d="M1268.5 2122.5 1268.5 2135.5" stroke="#D9D9D9" stroke-width="3.4375" stroke-miterlimit="2" fill="none"/><path d="M3072.5 2122.5 3072.5 2135.5" stroke="#D9D9D9" stroke-width="3.4375" stroke-miterlimit="2" fill="none"/><path d="M1268.5 2127.5 1268.5 2135.5" stroke="#D9D9D9" stroke-width="3.4375" stroke-miterlimit="2" fill="none"/><path d="M2170.5 2127.5 2170.5 2135.5" stroke="#D9D9D9" stroke-width="3.4375" stroke-miterlimit="2" fill="none"/><path d="M3072.5 2127.5 3072.5 2135.5" stroke="#D9D9D9" stroke-width="3.4375" stroke-miterlimit="2" fill="none"/><path d="M1268.5 2135.5 1268.5 734.5" stroke="#D9D9D9" stroke-width="3.4375" stroke-miterlimit="2" fill="none"/><text fill="#595959" font-family="Calibri,Calibri_MSFontService,sans-serif" font-weight="400" font-size="12" transform="matrix(3.4375 0 0 3.4375 1175.75 2109.93)" x="0.109659" y="3.39101">625<tspan font-size="12" x="0.109659" y="-79.7854">675</tspan><tspan font-size="12" x="0.109659" y="-162.962">725</tspan><tspan font-size="12" x="0.109659" y="-246.138">775</tspan><tspan font-size="12" x="0.109659" y="-329.315">825</tspan></text><path d="" stroke="#D9D9D9" stroke-width="3.4375" stroke-miterlimit="2" fill="none"/><path d="" stroke="#D9D9D9" stroke-width="3.4375" stroke-miterlimit="2" fill="none"/><path d="" stroke="#D9D9D9" stroke-width="3.4375" stroke-miterlimit="2" fill="none"/><path d="" stroke="#D9D9D9" stroke-width="3.4375" stroke-miterlimit="2" fill="none"/><path d="" stroke="#D9D9D9" stroke-width="3.4375" stroke-miterlimit="2" fill="none"/><path d="" stroke="#D9D9D9" stroke-width="3.4375" stroke-miterlimit="2" fill="none"/><path d="" stroke="#D9D9D9" stroke-width="3.4375" stroke-miterlimit="2" fill="none"/><path d="" stroke="#D9D9D9" stroke-width="3.4375" stroke-miterlimit="2" fill="none"/><path d="" stroke="#D9D9D9" stroke-width="3.4375" stroke-miterlimit="2" fill="none"/><path d="" stroke="#D9D9D9" stroke-width="3.4375" stroke-miterlimit="2" fill="none"/><path d="" stroke="#D9D9D9" stroke-width="3.4375" stroke-miterlimit="2" fill="none"/><path d="" stroke="#D9D9D9" stroke-width="3.4375" stroke-miterlimit="2" fill="none"/><path d="" stroke="#D9D9D9" stroke-width="3.4375" stroke-miterlimit="2" fill="none"/><path d="" stroke="#D9D9D9" stroke-width="3.4375" stroke-miterlimit="2" fill="none"/><path d="" stroke="#D9D9D9" stroke-width="3.4375" stroke-miterlimit="2" fill="none"/><path d="" stroke="#D9D9D9" stroke-width="3.4375" stroke-miterlimit="2" fill="none"/><path d="" stroke="#D9D9D9" stroke-width="3.4375" stroke-miterlimit="2" fill="none"/><path d="" stroke="#D9D9D9" stroke-width="3.4375" stroke-miterlimit="2" fill="none"/><path d="" stroke="#D9D9D9" stroke-width="3.4375" stroke-miterlimit="2" fill="none"/><path d="" stroke="#D9D9D9" stroke-width="3.4375" stroke-miterlimit="2" fill="none"/><path d="" stroke="#D9D9D9" stroke-width="3.4375" stroke-miterlimit="2" fill="none"/><path d="" stroke="#D9D9D9" stroke-width="3.4375" stroke-miterlimit="2" fill="none"/><path d="" stroke="#D9D9D9" stroke-width="3.4375" stroke-miterlimit="2" fill="none"/><path d="" stroke="#D9D9D9" stroke-width="3.4375" stroke-miterlimit="2" fill="none"/><path d="" stroke="#D9D9D9" stroke-width="3.4375" stroke-miterlimit="2" fill="none"/><path d="" stroke="#D9D9D9" stroke-width="3.4375" stroke-miterlimit="2" fill="none"/><path d="" stroke="#D9D9D9" stroke-width="3.4375" stroke-miterlimit="2" fill="none"/><path d="" stroke="#D9D9D9" stroke-width="3.4375" stroke-miterlimit="2" fill="none"/><path d="" stroke="#D9D9D9" stroke-width="3.4375" stroke-miterlimit="2" fill="none"/><path d="" stroke="#D9D9D9" stroke-width="3.4375" stroke-miterlimit="2" fill="none"/><g clip-path="url(#clip2)"><text fill="#595959" font-family="Calibri,Calibri_MSFontService,sans-serif" font-weight="400" font-size="64" transform="translate(1855.78 695)">Ground contact time</text></g><path d="M1152 610 3103.35 610 3103.35 2241.67 1152 2241.67Z" fill="#000000" fill-rule="evenodd" fill-opacity="0"/></g></svg>